<svg width="528" height="305" viewBox="0 0 528 305" fill="none" xmlns="http://www.w3.org/2000/svg">
<path d="M0.666687 116.333V232.333H8.66669H16.6667V239V245.667H38.6667H60.6667L60.4 249.4C60.2667 251.4 60.2667 261.8 60.4 272.6L60.6667 292.333H68.6667H76.6667V298.333V304.333H302H527.333V189V73.6667H522H516.667V67V60.3333H492H467.333V37V13.6667H462H456.667V6.99999V0.333328H228.667H0.666687V116.333ZM451.333 19V32.3333H282H112.667V19V5.66666H282H451.333V19ZM451.333 49V60.3333L256.4 60.6L61.3334 61L60.9334 143.933L60.6667 227H33.3334H6.00002V132.333V37.6667H228.667H451.333V49ZM511.333 79V92.3333H342H172.667V79V65.6667H342H511.333V79ZM511.333 192.333V287H288.667H66V192.333V97.6667H288.667H511.333V192.333Z" fill="black"/>
<path d="M404.667 17.6667C404.667 22.7333 405.2 24.3333 406.667 24.3333C407.733 24.3333 408.667 25.2667 408.667 26.3333C408.667 27.9333 410.4 28.3333 416 28.3333H423.333V21.6667C423.333 16.6 422.8 15 421.333 15C420.267 15 419.333 14.0667 419.333 13C419.333 11.4 417.6 11 412 11H404.667V17.6667Z" fill="black"/>
<path d="M429.333 15.1333C428.8 15.8 429.333 17.5333 430.533 18.8666C432.4 21 432.4 21.4 430.4 23.4C428.667 25.1333 428.533 26.0666 429.733 27.2666C430.933 28.4666 431.867 28.3333 433.733 26.6C436 24.6 436.267 24.6 438.4 26.6C440.133 28.4666 440.933 28.6 442.267 27.2666C443.6 25.9333 443.467 25.1333 441.6 23.4C439.6 21.2666 439.6 21 441.6 18.7333C444.8 15.1333 441.733 12.2 438.267 15.4C436 17.5333 435.6 17.5333 434 15.6666C432 13.2666 430.533 13.1333 429.333 15.1333Z" fill="black"/>
<path d="M380.667 26.3333C380.667 27.9333 382.533 28.3333 390 28.3333C397.467 28.3333 399.333 27.9333 399.333 26.3333C399.333 24.7333 397.467 24.3333 390 24.3333C382.533 24.3333 380.667 24.7333 380.667 26.3333Z" fill="black"/>
<path d="M464.667 77.6666C464.667 83.4 465.067 84.3333 467.333 84.3333C468.8 84.3333 470 85.2666 470 86.3333C470 87.8 471.6 88.3333 476.667 88.3333H483.333V81.6666C483.333 76.6 482.8 75 481.333 75C480.267 75 479.333 74.0666 479.333 73C479.333 71.4 477.6 71 472 71H464.667V77.6666Z" fill="black"/>
<path d="M489.333 75.1333C488.8 75.8 489.333 77.5333 490.533 78.8667C492.4 81 492.4 81.4 490.4 83.4C488.667 85.1333 488.533 86.0667 489.733 87.2667C490.933 88.4667 491.867 88.3333 493.733 86.6C496 84.6 496.267 84.6 498.4 86.6C500.133 88.4667 500.933 88.6 502.267 87.2667C503.6 85.9333 503.467 85.1333 501.6 83.4C499.6 81.2667 499.6 81 501.6 78.7333C504.8 75.1333 501.733 72.2 498.267 75.4C496 77.5333 495.6 77.5333 494 75.6667C492 73.2667 490.533 73.1333 489.333 75.1333Z" fill="black"/>
<path d="M440.667 86.3333C440.667 87.9333 442.533 88.3333 450 88.3333C457.467 88.3333 459.333 87.9333 459.333 86.3333C459.333 84.7333 457.467 84.3333 450 84.3333C442.533 84.3333 440.667 84.7333 440.667 86.3333Z" fill="black"/>
<path d="M274 135.667V139H296H318V135.667V132.333H296H274V135.667Z" fill="black"/>
<path d="M266.933 139.8C266.4 140.333 266 142.2 266 143.933C266 146.467 265.333 147 262 147C258.667 147 258 147.533 258 150.333C258 153.133 257.333 153.667 254 153.667H250V161.667C250 169.267 249.867 169.667 246.667 169.667H243.333V185V200.333H246.667H250V185V169.667H254H258V161.667V153.667H262C265.333 153.667 266 153.133 266 150.333C266 147.533 266.667 147 270.133 147C273.733 147 274.133 146.6 273.733 143.267C273.333 139.8 269.2 137.533 266.933 139.8Z" fill="black"/>
<path d="M318.933 139.933C318.4 140.333 318 142.2 318 143.933C318 146.467 318.667 147 322 147C325.333 147 326 147.533 326 150.333C326 153.133 326.667 153.667 330 153.667H334V161.667C334 169.267 334.133 169.667 337.333 169.667H340.667V184.333V199H337.333C334.133 199 334 199.4 334 207V215H330C326.667 215 326 215.533 326 218.333C326 221.533 325.6 221.667 318.667 221.667C311.467 221.667 311.333 221.667 311.333 225.667V229.667H296H280.667V225.667C280.667 221.667 280.533 221.667 273.333 221.667C266.4 221.667 266 221.533 266 218.333C266 215.533 265.333 215 262 215C258 215 258 214.867 258 207.667C258 200.733 257.867 200.333 254.667 200.333C251.467 200.333 251.333 200.733 251.333 207.667C251.333 214.6 251.467 215 254.667 215C257.333 215 258 215.667 258 218.333C258 221.133 258.667 221.667 262 221.667C265.6 221.667 266 222.067 266 225.667C266 229.667 266.133 229.667 273.333 229.667C280.533 229.667 280.667 229.667 280.667 233.667V237.667H296H311.333V233.667C311.333 229.667 311.467 229.667 318.667 229.667C325.867 229.667 326 229.667 326 225.667C326 222.067 326.4 221.667 330 221.667C333.333 221.667 334 221.133 334 218.333C334 215.667 334.667 215 337.333 215C340.533 215 340.667 214.6 340.667 207V199H344.667H348.667V184.333V169.667H344.667H340.667V161.667C340.667 154.067 340.533 153.667 337.333 153.667C334.667 153.667 334 153 334 150.333C334 147.533 333.333 147 330 147C326.4 147 326 146.6 326 143C326 139.667 325.467 139 322.933 139C321.2 139 319.333 139.4 318.933 139.933Z" fill="black"/>
<path d="M278 165C278 176.2 278 176.333 281.333 176.333C284.667 176.333 284.667 176.2 284.667 165C284.667 153.8 284.667 153.667 281.333 153.667C278 153.667 278 153.8 278 165Z" fill="black"/>
<path d="M304.667 165V176.333H308.667H312.667V165V153.667H308.667H304.667V165Z" fill="black"/>
<path d="M272.667 194.333C272.667 197.133 273.333 197.667 276.667 197.667C280.267 197.667 280.667 198.067 280.667 201.667V205.667H296H311.333V201.667C311.333 198.333 311.867 197.667 314.667 197.667C317.333 197.667 318 197 318 194.333C318 191.667 317.333 191 314.667 191C312 191 311.333 191.667 311.333 194.333V197.667H296H280.667V194.333C280.667 191.533 280 191 276.667 191C273.333 191 272.667 191.533 272.667 194.333Z" fill="black"/>
<path d="M483.333 16.3333C483.333 17.8 484 19 484.667 19C485.467 19 486 17.8 486 16.3333C486 14.8667 485.467 13.6667 484.667 13.6667C484 13.6667 483.333 14.8667 483.333 16.3333Z" fill="black"/>
<path d="M506.933 38.6C505.333 40.0667 505.867 41.6667 508 41.6667C509.067 41.6667 510 40.7333 510 39.6667C510 37.5333 508.4 37 506.933 38.6Z" fill="black"/>
<path d="M12 250.867C11.0667 252.467 13.6 254.067 15.3333 253C16.8 252.067 15.8667 249.667 14 249.667C13.3333 249.667 12.5333 250.2 12 250.867Z" fill="black"/>
<path d="M35.6 275.267C36.4 277.667 39.3333 278.067 39.3333 275.8C39.3333 274.6 38.4 273.667 37.2 273.667C36 273.667 35.3333 274.333 35.6 275.267Z" fill="black"/>
<path d="M12 297.8C10.6667 299.8 12.1333 300.867 14.6667 299.8C15.8667 299.4 16.4 298.467 16 297.667C14.9333 295.933 13.0667 295.933 12 297.8Z" fill="black"/>
<path d="M59.3334 298.2C59.3334 299.4 60.2667 300.333 61.4667 300.333C62.6667 300.333 63.3334 299.667 63.0667 298.733C62.2667 296.333 59.3334 295.933 59.3334 298.2Z" fill="black"/>
</svg>
